# xmcd
#
# Track frame offsets: 
#        182
#        11755
#        26220
#        39927
#        58542
#
# Disc length: 1001 seconds
#
# Revision: 4
# Processed by: cddbd v1.5.1PL0 Copyright (c) Steve Scherf et al.
# Submitted via: ExactAudioCopy v0.95a5
#
DISCID=3703e705
DTITLE=Junior Brown - Junior High
DYEAR=1995
DGENRE=Alternative Country
TTITLE0=Highway Patrol
TTITLE1=That's Easy For You To Say
TTITLE2=My Wife Thinks You're Dead
TTITLE3=Lovely Hula Hands
TTITLE4=Sugarfoot Rag
EXTD=
EXTT0=
EXTT1=
EXTT2=
EXTT3=
EXTT4=
PLAYORDER=
